<mxfile host="www.draw.io" modified="2020-08-06T18:48:51.401Z" agent="5.0 (Windows NT 10.0; Win64; x64) AppleWebKit/537.36 (KHTML, like Gecko) Chrome/84.0.4147.105 Safari/537.36 Edg/84.0.522.52" etag="DMJSMgJ8gi47D6PswG9O" version="13.6.0" type="github">
  <diagram id="9JsVF1Auakn79N2M9zxc" name="Page-1">
    <mxGraphModel dx="1422" dy="762" grid="1" gridSize="10" guides="1" tooltips="1" connect="1" arrows="1" fold="1" page="1" pageScale="1" pageWidth="4681" pageHeight="3300" math="0" shadow="0">
      <root>
        <mxCell id="0" />
        <mxCell id="1" parent="0" />
        <mxCell id="hLp1cjF8AEED7CW_KekL-1" value="Login&lt;br&gt;with&lt;br&gt;Wireless Context" style="rounded=0;whiteSpace=wrap;html=1;" vertex="1" parent="1">
          <mxGeometry x="430" y="580" width="120" height="60" as="geometry" />
        </mxCell>
        <mxCell id="hLp1cjF8AEED7CW_KekL-2" value="Halo.C Token Validation" style="shape=process;whiteSpace=wrap;html=1;backgroundOutline=1;" vertex="1" parent="1">
          <mxGeometry x="340" y="480" width="120" height="60" as="geometry" />
        </mxCell>
        <mxCell id="hLp1cjF8AEED7CW_KekL-3" value="InquireUnified&lt;br&gt;Customer&lt;br&gt;Login&lt;br&gt;ProfileService" style="shape=process;whiteSpace=wrap;html=1;backgroundOutline=1;" vertex="1" parent="1">
          <mxGeometry x="340" y="400" width="120" height="60" as="geometry" />
        </mxCell>
        <mxCell id="hLp1cjF8AEED7CW_KekL-5" value="" style="endArrow=classic;html=1;entryX=1;entryY=0.5;entryDx=0;entryDy=0;exitX=0.5;exitY=0;exitDx=0;exitDy=0;" edge="1" parent="1" source="hLp1cjF8AEED7CW_KekL-1" target="hLp1cjF8AEED7CW_KekL-3">
          <mxGeometry width="50" height="50" relative="1" as="geometry">
            <mxPoint x="514" y="580" as="sourcePoint" />
            <mxPoint x="630" y="530" as="targetPoint" />
            <Array as="points">
              <mxPoint x="490" y="430" />
            </Array>
          </mxGeometry>
        </mxCell>
        <mxCell id="hLp1cjF8AEED7CW_KekL-6" value="" style="endArrow=classic;html=1;entryX=1;entryY=0.5;entryDx=0;entryDy=0;" edge="1" parent="1" target="hLp1cjF8AEED7CW_KekL-2">
          <mxGeometry width="50" height="50" relative="1" as="geometry">
            <mxPoint x="480" y="580" as="sourcePoint" />
            <mxPoint x="410" y="550" as="targetPoint" />
            <Array as="points">
              <mxPoint x="480" y="510" />
            </Array>
          </mxGeometry>
        </mxCell>
        <mxCell id="hLp1cjF8AEED7CW_KekL-8" value="Upgrade&lt;br&gt;CTN&lt;br&gt;List" style="rounded=0;whiteSpace=wrap;html=1;" vertex="1" parent="1">
          <mxGeometry x="710" y="580" width="120" height="60" as="geometry" />
        </mxCell>
        <mxCell id="hLp1cjF8AEED7CW_KekL-9" value="GRIDAC-Wireless&lt;br&gt;Dashboard&lt;br&gt;Account" style="shape=process;whiteSpace=wrap;html=1;backgroundOutline=1;" vertex="1" parent="1">
          <mxGeometry x="340" y="320" width="120" height="60" as="geometry" />
        </mxCell>
        <mxCell id="hLp1cjF8AEED7CW_KekL-10" value="" style="endArrow=classic;html=1;entryX=1;entryY=0.5;entryDx=0;entryDy=0;exitX=0.608;exitY=-0.033;exitDx=0;exitDy=0;exitPerimeter=0;" edge="1" parent="1" source="hLp1cjF8AEED7CW_KekL-1" target="hLp1cjF8AEED7CW_KekL-9">
          <mxGeometry width="50" height="50" relative="1" as="geometry">
            <mxPoint x="650" y="570" as="sourcePoint" />
            <mxPoint x="710" y="500" as="targetPoint" />
            <Array as="points">
              <mxPoint x="503" y="350" />
            </Array>
          </mxGeometry>
        </mxCell>
        <mxCell id="hLp1cjF8AEED7CW_KekL-11" value="InquireAccount&lt;br&gt;Profile (L3)" style="shape=process;whiteSpace=wrap;html=1;backgroundOutline=1;" vertex="1" parent="1">
          <mxGeometry x="620" y="470" width="120" height="60" as="geometry" />
        </mxCell>
        <mxCell id="hLp1cjF8AEED7CW_KekL-12" value="" style="endArrow=classic;html=1;entryX=1;entryY=0.5;entryDx=0;entryDy=0;exitX=0.417;exitY=0.017;exitDx=0;exitDy=0;exitPerimeter=0;" edge="1" parent="1" source="hLp1cjF8AEED7CW_KekL-8" target="hLp1cjF8AEED7CW_KekL-11">
          <mxGeometry width="50" height="50" relative="1" as="geometry">
            <mxPoint x="680" y="580" as="sourcePoint" />
            <mxPoint x="730" y="530" as="targetPoint" />
            <Array as="points">
              <mxPoint x="760" y="500" />
            </Array>
          </mxGeometry>
        </mxCell>
        <mxCell id="hLp1cjF8AEED7CW_KekL-13" value="Inquire&lt;br&gt;Subscriber&lt;br&gt;ContractDetails" style="shape=process;whiteSpace=wrap;html=1;backgroundOutline=1;" vertex="1" parent="1">
          <mxGeometry x="620" y="380" width="120" height="60" as="geometry" />
        </mxCell>
        <mxCell id="hLp1cjF8AEED7CW_KekL-14" value="" style="endArrow=classic;html=1;entryX=1;entryY=0.5;entryDx=0;entryDy=0;exitX=0.592;exitY=-0.017;exitDx=0;exitDy=0;exitPerimeter=0;" edge="1" parent="1" source="hLp1cjF8AEED7CW_KekL-8" target="hLp1cjF8AEED7CW_KekL-13">
          <mxGeometry width="50" height="50" relative="1" as="geometry">
            <mxPoint x="910" y="610" as="sourcePoint" />
            <mxPoint x="960" y="560" as="targetPoint" />
            <Array as="points">
              <mxPoint x="780" y="410" />
            </Array>
          </mxGeometry>
        </mxCell>
        <mxCell id="hLp1cjF8AEED7CW_KekL-15" value="" style="endArrow=classic;html=1;exitX=1;exitY=0.5;exitDx=0;exitDy=0;entryX=0;entryY=0.5;entryDx=0;entryDy=0;" edge="1" parent="1" source="hLp1cjF8AEED7CW_KekL-1" target="hLp1cjF8AEED7CW_KekL-8">
          <mxGeometry relative="1" as="geometry">
            <mxPoint x="690" y="630" as="sourcePoint" />
            <mxPoint x="790" y="630" as="targetPoint" />
          </mxGeometry>
        </mxCell>
        <mxCell id="hLp1cjF8AEED7CW_KekL-16" value="1" style="shape=cloud;html=1;outlineConnect=0;" vertex="1" parent="hLp1cjF8AEED7CW_KekL-15">
          <mxGeometry width="30" height="20" relative="1" as="geometry">
            <mxPoint x="-15" y="-10" as="offset" />
          </mxGeometry>
        </mxCell>
        <mxCell id="hLp1cjF8AEED7CW_KekL-17" value="Inquire&lt;br&gt;Upgrade&lt;br&gt;Eligibility" style="shape=process;whiteSpace=wrap;html=1;backgroundOutline=1;" vertex="1" parent="1">
          <mxGeometry x="620" y="290" width="120" height="60" as="geometry" />
        </mxCell>
        <mxCell id="hLp1cjF8AEED7CW_KekL-18" value="" style="endArrow=classic;html=1;entryX=1;entryY=0.5;entryDx=0;entryDy=0;" edge="1" parent="1" target="hLp1cjF8AEED7CW_KekL-17">
          <mxGeometry width="50" height="50" relative="1" as="geometry">
            <mxPoint x="810" y="579" as="sourcePoint" />
            <mxPoint x="1050" y="550" as="targetPoint" />
            <Array as="points">
              <mxPoint x="810" y="320" />
            </Array>
          </mxGeometry>
        </mxCell>
        <mxCell id="hLp1cjF8AEED7CW_KekL-19" value="Select CTN" style="rounded=0;whiteSpace=wrap;html=1;" vertex="1" parent="1">
          <mxGeometry x="930" y="580" width="120" height="60" as="geometry" />
        </mxCell>
        <mxCell id="hLp1cjF8AEED7CW_KekL-26" value="" style="endArrow=classic;html=1;exitX=1;exitY=0.5;exitDx=0;exitDy=0;entryX=0;entryY=0.5;entryDx=0;entryDy=0;" edge="1" parent="1" source="hLp1cjF8AEED7CW_KekL-8" target="hLp1cjF8AEED7CW_KekL-19">
          <mxGeometry relative="1" as="geometry">
            <mxPoint x="940" y="610" as="sourcePoint" />
            <mxPoint x="970" y="610" as="targetPoint" />
          </mxGeometry>
        </mxCell>
        <mxCell id="hLp1cjF8AEED7CW_KekL-27" value="2" style="shape=cloud;html=1;outlineConnect=0;" vertex="1" parent="hLp1cjF8AEED7CW_KekL-26">
          <mxGeometry width="30" height="20" relative="1" as="geometry">
            <mxPoint x="-15" y="-10" as="offset" />
          </mxGeometry>
        </mxCell>
        <mxCell id="hLp1cjF8AEED7CW_KekL-28" value="Device List" style="rounded=0;whiteSpace=wrap;html=1;" vertex="1" parent="1">
          <mxGeometry x="1130" y="580" width="120" height="60" as="geometry" />
        </mxCell>
        <mxCell id="hLp1cjF8AEED7CW_KekL-29" value="" style="endArrow=classic;html=1;exitX=1;exitY=0.5;exitDx=0;exitDy=0;entryX=0;entryY=0.5;entryDx=0;entryDy=0;" edge="1" parent="1" source="hLp1cjF8AEED7CW_KekL-19" target="hLp1cjF8AEED7CW_KekL-28">
          <mxGeometry relative="1" as="geometry">
            <mxPoint x="1160" y="610" as="sourcePoint" />
            <mxPoint x="1290" y="610" as="targetPoint" />
          </mxGeometry>
        </mxCell>
        <mxCell id="hLp1cjF8AEED7CW_KekL-30" value="3" style="shape=cloud;html=1;outlineConnect=0;" vertex="1" parent="hLp1cjF8AEED7CW_KekL-29">
          <mxGeometry width="30" height="20" relative="1" as="geometry">
            <mxPoint x="-15" y="-10" as="offset" />
          </mxGeometry>
        </mxCell>
        <mxCell id="hLp1cjF8AEED7CW_KekL-31" value="Device&lt;br&gt;Add To Cart" style="rounded=0;whiteSpace=wrap;html=1;" vertex="1" parent="1">
          <mxGeometry x="490" y="1110" width="120" height="60" as="geometry" />
        </mxCell>
        <mxCell id="hLp1cjF8AEED7CW_KekL-32" value="" style="endArrow=classic;html=1;exitX=1;exitY=0.5;exitDx=0;exitDy=0;entryX=0;entryY=0.5;entryDx=0;entryDy=0;" edge="1" parent="1" source="hLp1cjF8AEED7CW_KekL-39" target="hLp1cjF8AEED7CW_KekL-31">
          <mxGeometry relative="1" as="geometry">
            <mxPoint x="1170" y="820" as="sourcePoint" />
            <mxPoint x="1270" y="820" as="targetPoint" />
            <Array as="points">
              <mxPoint x="1470" y="610" />
              <mxPoint x="1470" y="710" />
              <mxPoint x="350" y="710" />
              <mxPoint x="350" y="1010" />
              <mxPoint x="350" y="1140" />
            </Array>
          </mxGeometry>
        </mxCell>
        <mxCell id="hLp1cjF8AEED7CW_KekL-33" value="5" style="shape=cloud;html=1;outlineConnect=0;" vertex="1" parent="hLp1cjF8AEED7CW_KekL-32">
          <mxGeometry width="30" height="20" relative="1" as="geometry">
            <mxPoint x="185" y="-10" as="offset" />
          </mxGeometry>
        </mxCell>
        <mxCell id="hLp1cjF8AEED7CW_KekL-35" value="Cart&lt;br&gt;CTA" style="rounded=0;whiteSpace=wrap;html=1;" vertex="1" parent="1">
          <mxGeometry x="750" y="1110" width="120" height="60" as="geometry" />
        </mxCell>
        <mxCell id="hLp1cjF8AEED7CW_KekL-36" value="" style="endArrow=classic;html=1;exitX=1;exitY=0.5;exitDx=0;exitDy=0;entryX=0;entryY=0.5;entryDx=0;entryDy=0;" edge="1" parent="1" source="hLp1cjF8AEED7CW_KekL-31" target="hLp1cjF8AEED7CW_KekL-35">
          <mxGeometry relative="1" as="geometry">
            <mxPoint x="590" y="1140" as="sourcePoint" />
            <mxPoint x="690" y="1140" as="targetPoint" />
          </mxGeometry>
        </mxCell>
        <mxCell id="hLp1cjF8AEED7CW_KekL-37" value="5" style="shape=cloud;html=1;outlineConnect=0;" vertex="1" parent="hLp1cjF8AEED7CW_KekL-36">
          <mxGeometry width="30" height="20" relative="1" as="geometry">
            <mxPoint x="-15" y="-10" as="offset" />
          </mxGeometry>
        </mxCell>
        <mxCell id="hLp1cjF8AEED7CW_KekL-39" value="Device Detail" style="rounded=0;whiteSpace=wrap;html=1;" vertex="1" parent="1">
          <mxGeometry x="1330" y="580" width="120" height="60" as="geometry" />
        </mxCell>
        <mxCell id="hLp1cjF8AEED7CW_KekL-40" value="" style="endArrow=classic;html=1;exitX=1;exitY=0.5;exitDx=0;exitDy=0;entryX=0;entryY=0.5;entryDx=0;entryDy=0;" edge="1" parent="1" source="hLp1cjF8AEED7CW_KekL-28" target="hLp1cjF8AEED7CW_KekL-39">
          <mxGeometry relative="1" as="geometry">
            <mxPoint x="1270" y="660" as="sourcePoint" />
            <mxPoint x="1370" y="660" as="targetPoint" />
          </mxGeometry>
        </mxCell>
        <mxCell id="hLp1cjF8AEED7CW_KekL-41" value="4" style="shape=cloud;html=1;outlineConnect=0;" vertex="1" parent="hLp1cjF8AEED7CW_KekL-40">
          <mxGeometry width="30" height="20" relative="1" as="geometry">
            <mxPoint x="-15" y="-10" as="offset" />
          </mxGeometry>
        </mxCell>
        <mxCell id="hLp1cjF8AEED7CW_KekL-42" value="YODA&lt;br&gt;Tax" style="shape=process;whiteSpace=wrap;html=1;backgroundOutline=1;" vertex="1" parent="1">
          <mxGeometry x="360" y="1000" width="120" height="60" as="geometry" />
        </mxCell>
        <mxCell id="hLp1cjF8AEED7CW_KekL-43" value="" style="endArrow=classic;html=1;exitX=0.158;exitY=-0.017;exitDx=0;exitDy=0;entryX=1;entryY=0.5;entryDx=0;entryDy=0;exitPerimeter=0;" edge="1" parent="1" source="hLp1cjF8AEED7CW_KekL-31" target="hLp1cjF8AEED7CW_KekL-42">
          <mxGeometry width="50" height="50" relative="1" as="geometry">
            <mxPoint x="530" y="1070" as="sourcePoint" />
            <mxPoint x="580" y="1020" as="targetPoint" />
            <Array as="points">
              <mxPoint x="510" y="1030" />
            </Array>
          </mxGeometry>
        </mxCell>
        <mxCell id="hLp1cjF8AEED7CW_KekL-44" value="Inquire&lt;br&gt;Account&lt;br&gt;Profile (Al - Litemode)" style="shape=process;whiteSpace=wrap;html=1;backgroundOutline=1;" vertex="1" parent="1">
          <mxGeometry x="570" y="740" width="120" height="60" as="geometry" />
        </mxCell>
        <mxCell id="hLp1cjF8AEED7CW_KekL-45" value="Process&lt;br&gt;Location&lt;br&gt;Attributes&lt;br&gt;(PLA)" style="shape=process;whiteSpace=wrap;html=1;backgroundOutline=1;" vertex="1" parent="1">
          <mxGeometry x="570" y="810" width="120" height="60" as="geometry" />
        </mxCell>
        <mxCell id="hLp1cjF8AEED7CW_KekL-46" value="Inquire&lt;br&gt;Subscriber&lt;br&gt;Contract&lt;br&gt;Details" style="shape=process;whiteSpace=wrap;html=1;backgroundOutline=1;fillColor=#fff2cc;strokeColor=#d6b656;" vertex="1" parent="1">
          <mxGeometry x="570" y="880" width="120" height="60" as="geometry" />
        </mxCell>
        <mxCell id="hLp1cjF8AEED7CW_KekL-47" value="Inquire&lt;br&gt;Return&lt;br&gt;Eligible&lt;br&gt;Details" style="shape=process;whiteSpace=wrap;html=1;backgroundOutline=1;fillColor=#fff2cc;strokeColor=#d6b656;" vertex="1" parent="1">
          <mxGeometry x="570" y="950" width="120" height="60" as="geometry" />
        </mxCell>
        <mxCell id="hLp1cjF8AEED7CW_KekL-48" value="Inquire&lt;br&gt;Return&lt;br&gt;Eligible&lt;br&gt;Device&lt;br&gt;Grade" style="shape=process;whiteSpace=wrap;html=1;backgroundOutline=1;fillColor=#fff2cc;strokeColor=#d6b656;" vertex="1" parent="1">
          <mxGeometry x="570" y="1020" width="120" height="70" as="geometry" />
        </mxCell>
        <mxCell id="hLp1cjF8AEED7CW_KekL-49" value="Inquire&lt;br&gt;Account&lt;br&gt;Profile (Al - Litemode)" style="shape=process;whiteSpace=wrap;html=1;backgroundOutline=1;fillColor=#fff2cc;strokeColor=#d6b656;" vertex="1" parent="1">
          <mxGeometry x="570" y="740" width="120" height="60" as="geometry" />
        </mxCell>
        <mxCell id="hLp1cjF8AEED7CW_KekL-50" value="Process&lt;br&gt;Location&lt;br&gt;Attributes&lt;br&gt;(PLA)" style="shape=process;whiteSpace=wrap;html=1;backgroundOutline=1;fillColor=#fff2cc;strokeColor=#d6b656;" vertex="1" parent="1">
          <mxGeometry x="570" y="810" width="120" height="60" as="geometry" />
        </mxCell>
        <mxCell id="hLp1cjF8AEED7CW_KekL-51" value="" style="endArrow=classic;html=1;entryX=0;entryY=0.5;entryDx=0;entryDy=0;" edge="1" parent="1" target="hLp1cjF8AEED7CW_KekL-49">
          <mxGeometry width="50" height="50" relative="1" as="geometry">
            <mxPoint x="520" y="1108" as="sourcePoint" />
            <mxPoint x="540" y="880" as="targetPoint" />
            <Array as="points">
              <mxPoint x="520" y="770" />
            </Array>
          </mxGeometry>
        </mxCell>
        <mxCell id="hLp1cjF8AEED7CW_KekL-52" value="" style="endArrow=classic;html=1;entryX=0;entryY=0.5;entryDx=0;entryDy=0;" edge="1" parent="1" target="hLp1cjF8AEED7CW_KekL-50">
          <mxGeometry width="50" height="50" relative="1" as="geometry">
            <mxPoint x="530" y="1110" as="sourcePoint" />
            <mxPoint x="550" y="840" as="targetPoint" />
            <Array as="points">
              <mxPoint x="530" y="840" />
            </Array>
          </mxGeometry>
        </mxCell>
        <mxCell id="hLp1cjF8AEED7CW_KekL-53" value="" style="endArrow=classic;html=1;entryX=0;entryY=0.5;entryDx=0;entryDy=0;exitX=0.408;exitY=-0.017;exitDx=0;exitDy=0;exitPerimeter=0;" edge="1" parent="1" source="hLp1cjF8AEED7CW_KekL-31" target="hLp1cjF8AEED7CW_KekL-46">
          <mxGeometry width="50" height="50" relative="1" as="geometry">
            <mxPoint x="510" y="960" as="sourcePoint" />
            <mxPoint x="560" y="910" as="targetPoint" />
            <Array as="points">
              <mxPoint x="539" y="910" />
            </Array>
          </mxGeometry>
        </mxCell>
        <mxCell id="hLp1cjF8AEED7CW_KekL-54" value="" style="endArrow=classic;html=1;entryX=0;entryY=0.5;entryDx=0;entryDy=0;exitX=0.5;exitY=0;exitDx=0;exitDy=0;" edge="1" parent="1" source="hLp1cjF8AEED7CW_KekL-31" target="hLp1cjF8AEED7CW_KekL-47">
          <mxGeometry width="50" height="50" relative="1" as="geometry">
            <mxPoint x="490" y="1020" as="sourcePoint" />
            <mxPoint x="540" y="970" as="targetPoint" />
            <Array as="points">
              <mxPoint x="550" y="980" />
            </Array>
          </mxGeometry>
        </mxCell>
        <mxCell id="hLp1cjF8AEED7CW_KekL-55" value="" style="endArrow=classic;html=1;entryX=0;entryY=0.5;entryDx=0;entryDy=0;" edge="1" parent="1" target="hLp1cjF8AEED7CW_KekL-48">
          <mxGeometry width="50" height="50" relative="1" as="geometry">
            <mxPoint x="550" y="1108" as="sourcePoint" />
            <mxPoint x="510" y="1060" as="targetPoint" />
            <Array as="points">
              <mxPoint x="550" y="1055" />
            </Array>
          </mxGeometry>
        </mxCell>
        <mxCell id="hLp1cjF8AEED7CW_KekL-56" value="YODA&lt;br&gt;Tax" style="shape=process;whiteSpace=wrap;html=1;backgroundOutline=1;" vertex="1" parent="1">
          <mxGeometry x="750" y="1000" width="120" height="60" as="geometry" />
        </mxCell>
        <mxCell id="hLp1cjF8AEED7CW_KekL-57" value="" style="endArrow=classic;html=1;entryX=0.5;entryY=1;entryDx=0;entryDy=0;exitX=0.5;exitY=0;exitDx=0;exitDy=0;" edge="1" parent="1" source="hLp1cjF8AEED7CW_KekL-35" target="hLp1cjF8AEED7CW_KekL-56">
          <mxGeometry width="50" height="50" relative="1" as="geometry">
            <mxPoint x="890" y="1130" as="sourcePoint" />
            <mxPoint x="940" y="1080" as="targetPoint" />
          </mxGeometry>
        </mxCell>
        <mxCell id="hLp1cjF8AEED7CW_KekL-58" value="Checkout&lt;br&gt;CTA" style="rounded=0;whiteSpace=wrap;html=1;" vertex="1" parent="1">
          <mxGeometry x="1030" y="1110" width="120" height="60" as="geometry" />
        </mxCell>
        <mxCell id="hLp1cjF8AEED7CW_KekL-59" value="YODA&lt;br&gt;Tax" style="shape=process;whiteSpace=wrap;html=1;backgroundOutline=1;" vertex="1" parent="1">
          <mxGeometry x="900" y="1000" width="120" height="60" as="geometry" />
        </mxCell>
        <mxCell id="hLp1cjF8AEED7CW_KekL-60" value="" style="endArrow=classic;html=1;entryX=1;entryY=0.5;entryDx=0;entryDy=0;exitX=0.25;exitY=0;exitDx=0;exitDy=0;" edge="1" source="hLp1cjF8AEED7CW_KekL-58" target="hLp1cjF8AEED7CW_KekL-59" parent="1">
          <mxGeometry width="50" height="50" relative="1" as="geometry">
            <mxPoint x="1130" y="1130" as="sourcePoint" />
            <mxPoint x="1180" y="1080" as="targetPoint" />
            <Array as="points">
              <mxPoint x="1060" y="1030" />
            </Array>
          </mxGeometry>
        </mxCell>
        <mxCell id="hLp1cjF8AEED7CW_KekL-61" value="" style="endArrow=classic;html=1;entryX=0;entryY=0.5;entryDx=0;entryDy=0;" edge="1" parent="1" target="hLp1cjF8AEED7CW_KekL-58">
          <mxGeometry relative="1" as="geometry">
            <mxPoint x="870" y="1140" as="sourcePoint" />
            <mxPoint x="950" y="1140" as="targetPoint" />
          </mxGeometry>
        </mxCell>
        <mxCell id="hLp1cjF8AEED7CW_KekL-62" value="6" style="shape=cloud;html=1;outlineConnect=0;" vertex="1" parent="hLp1cjF8AEED7CW_KekL-61">
          <mxGeometry width="30" height="20" relative="1" as="geometry">
            <mxPoint x="-15" y="-10" as="offset" />
          </mxGeometry>
        </mxCell>
        <mxCell id="hLp1cjF8AEED7CW_KekL-63" value="Inquire&lt;br&gt;Payment&lt;br&gt;Profile" style="shape=process;whiteSpace=wrap;html=1;backgroundOutline=1;" vertex="1" parent="1">
          <mxGeometry x="900" y="920" width="120" height="60" as="geometry" />
        </mxCell>
        <mxCell id="hLp1cjF8AEED7CW_KekL-64" value="Inquire&lt;br&gt;Affiliate&lt;br&gt;Account&lt;br&gt;PaymentBalance" style="shape=process;whiteSpace=wrap;html=1;backgroundOutline=1;" vertex="1" parent="1">
          <mxGeometry x="900" y="840" width="120" height="60" as="geometry" />
        </mxCell>
        <mxCell id="hLp1cjF8AEED7CW_KekL-65" value="Inquire&lt;br&gt;Available&lt;br&gt;Item&lt;br&gt;Quantity" style="shape=process;whiteSpace=wrap;html=1;backgroundOutline=1;fillColor=#dae8fc;strokeColor=#6c8ebf;" vertex="1" parent="1">
          <mxGeometry x="1150" y="840" width="120" height="60" as="geometry" />
        </mxCell>
        <mxCell id="hLp1cjF8AEED7CW_KekL-66" value="Inquire&lt;br&gt;Available&lt;br&gt;Item&lt;br&gt;Quantity" style="shape=process;whiteSpace=wrap;html=1;backgroundOutline=1;fillColor=#dae8fc;strokeColor=#6c8ebf;" vertex="1" parent="1">
          <mxGeometry x="1150" y="920" width="120" height="60" as="geometry" />
        </mxCell>
        <mxCell id="hLp1cjF8AEED7CW_KekL-68" value="Enjoy&lt;br&gt;First Availability" style="shape=process;whiteSpace=wrap;html=1;backgroundOutline=1;fillColor=#dae8fc;strokeColor=#6c8ebf;" vertex="1" parent="1">
          <mxGeometry x="1150" y="1000" width="120" height="60" as="geometry" />
        </mxCell>
        <mxCell id="hLp1cjF8AEED7CW_KekL-69" value="" style="endArrow=classic;html=1;entryX=1;entryY=0.5;entryDx=0;entryDy=0;exitX=0.333;exitY=0;exitDx=0;exitDy=0;exitPerimeter=0;" edge="1" parent="1" source="hLp1cjF8AEED7CW_KekL-58" target="hLp1cjF8AEED7CW_KekL-63">
          <mxGeometry width="50" height="50" relative="1" as="geometry">
            <mxPoint x="1050" y="1030" as="sourcePoint" />
            <mxPoint x="1100" y="980" as="targetPoint" />
            <Array as="points">
              <mxPoint x="1070" y="950" />
            </Array>
          </mxGeometry>
        </mxCell>
        <mxCell id="hLp1cjF8AEED7CW_KekL-70" value="" style="endArrow=classic;html=1;entryX=1;entryY=0.5;entryDx=0;entryDy=0;exitX=0.408;exitY=-0.017;exitDx=0;exitDy=0;exitPerimeter=0;" edge="1" parent="1" source="hLp1cjF8AEED7CW_KekL-58" target="hLp1cjF8AEED7CW_KekL-64">
          <mxGeometry width="50" height="50" relative="1" as="geometry">
            <mxPoint x="1050" y="920" as="sourcePoint" />
            <mxPoint x="1100" y="870" as="targetPoint" />
            <Array as="points">
              <mxPoint x="1079" y="870" />
            </Array>
          </mxGeometry>
        </mxCell>
        <mxCell id="hLp1cjF8AEED7CW_KekL-71" value="" style="endArrow=classic;html=1;entryX=0;entryY=0.5;entryDx=0;entryDy=0;" edge="1" parent="1" target="hLp1cjF8AEED7CW_KekL-65">
          <mxGeometry width="50" height="50" relative="1" as="geometry">
            <mxPoint x="1100" y="1110" as="sourcePoint" />
            <mxPoint x="1140" y="1010" as="targetPoint" />
            <Array as="points">
              <mxPoint x="1100" y="870" />
            </Array>
          </mxGeometry>
        </mxCell>
        <mxCell id="hLp1cjF8AEED7CW_KekL-72" value="" style="endArrow=classic;html=1;entryX=0;entryY=0.5;entryDx=0;entryDy=0;exitX=0.667;exitY=-0.033;exitDx=0;exitDy=0;exitPerimeter=0;" edge="1" parent="1" source="hLp1cjF8AEED7CW_KekL-58" target="hLp1cjF8AEED7CW_KekL-66">
          <mxGeometry width="50" height="50" relative="1" as="geometry">
            <mxPoint x="1000" y="1120" as="sourcePoint" />
            <mxPoint x="1050" y="1070" as="targetPoint" />
            <Array as="points">
              <mxPoint x="1110" y="950" />
            </Array>
          </mxGeometry>
        </mxCell>
        <mxCell id="hLp1cjF8AEED7CW_KekL-73" value="" style="endArrow=classic;html=1;entryX=0;entryY=0.5;entryDx=0;entryDy=0;exitX=0.75;exitY=0;exitDx=0;exitDy=0;" edge="1" parent="1" source="hLp1cjF8AEED7CW_KekL-58" target="hLp1cjF8AEED7CW_KekL-68">
          <mxGeometry width="50" height="50" relative="1" as="geometry">
            <mxPoint x="1190" y="1210" as="sourcePoint" />
            <mxPoint x="1240" y="1160" as="targetPoint" />
            <Array as="points">
              <mxPoint x="1120" y="1030" />
            </Array>
          </mxGeometry>
        </mxCell>
        <mxCell id="hLp1cjF8AEED7CW_KekL-74" value="Risk&lt;br&gt;Assessment&amp;nbsp;&lt;br&gt;Run 1" style="shape=process;whiteSpace=wrap;html=1;backgroundOutline=1;" vertex="1" parent="1">
          <mxGeometry x="340" y="240" width="120" height="60" as="geometry" />
        </mxCell>
        <mxCell id="hLp1cjF8AEED7CW_KekL-75" value="" style="endArrow=classic;html=1;entryX=1;entryY=0.5;entryDx=0;entryDy=0;exitX=0.75;exitY=0;exitDx=0;exitDy=0;" edge="1" parent="1" source="hLp1cjF8AEED7CW_KekL-1" target="hLp1cjF8AEED7CW_KekL-74">
          <mxGeometry width="50" height="50" relative="1" as="geometry">
            <mxPoint x="530" y="490" as="sourcePoint" />
            <mxPoint x="580" y="440" as="targetPoint" />
            <Array as="points">
              <mxPoint x="520" y="270" />
            </Array>
          </mxGeometry>
        </mxCell>
        <mxCell id="hLp1cjF8AEED7CW_KekL-76" value="Risk&lt;br&gt;Assessment&lt;br&gt;Run 2" style="shape=process;whiteSpace=wrap;html=1;backgroundOutline=1;" vertex="1" parent="1">
          <mxGeometry x="900" y="760" width="120" height="60" as="geometry" />
        </mxCell>
        <mxCell id="hLp1cjF8AEED7CW_KekL-77" value="" style="endArrow=classic;html=1;entryX=1;entryY=0.5;entryDx=0;entryDy=0;exitX=0.5;exitY=0;exitDx=0;exitDy=0;" edge="1" parent="1" source="hLp1cjF8AEED7CW_KekL-58" target="hLp1cjF8AEED7CW_KekL-76">
          <mxGeometry width="50" height="50" relative="1" as="geometry">
            <mxPoint x="1060" y="870" as="sourcePoint" />
            <mxPoint x="1110" y="820" as="targetPoint" />
            <Array as="points">
              <mxPoint x="1090" y="790" />
            </Array>
          </mxGeometry>
        </mxCell>
        <mxCell id="hLp1cjF8AEED7CW_KekL-78" value="Store&lt;br&gt;Locator&lt;br&gt;(OneMapMs)" style="shape=process;whiteSpace=wrap;html=1;backgroundOutline=1;fillColor=#dae8fc;strokeColor=#6c8ebf;" vertex="1" parent="1">
          <mxGeometry x="1150" y="760" width="120" height="60" as="geometry" />
        </mxCell>
        <mxCell id="hLp1cjF8AEED7CW_KekL-79" value="" style="endArrow=classic;html=1;entryX=0;entryY=0.5;entryDx=0;entryDy=0;" edge="1" parent="1" target="hLp1cjF8AEED7CW_KekL-78">
          <mxGeometry width="50" height="50" relative="1" as="geometry">
            <mxPoint x="1090" y="1110" as="sourcePoint" />
            <mxPoint x="1150" y="830" as="targetPoint" />
            <Array as="points">
              <mxPoint x="1090" y="790" />
            </Array>
          </mxGeometry>
        </mxCell>
      </root>
    </mxGraphModel>
  </diagram>
</mxfile>
